# xmcd CD database file
#
# Track frame offsets:
#	150
#	42402
#	60975
#	79637
#	98970
#	123057
#	158802
#	174565
#	198485
#	220090
#	238862
#	279535
#
# Disc length: 4126 seconds
#
# Revision: 0
# Processed by: cddbd v1.5.1PL0 Copyright (c) Steve Scherf et al.
# Submitted via: CDex 1.51
#
DISCID=9f101c0c
DTITLE=Buddy De Franco - The Complete Verve Recordings of The Buddy De Franco Quartet/Quintet with Sonny Clark CD3
DYEAR=1900
DGENRE=Jazz
TTITLE0=The Bright One
TTITLE1=Sonny's Idea
TTITLE2=Laura
TTITLE3=Everything Happens To Me
TTITLE4=I'll Remember April
TTITLE5=Willow Weep For Me
TTITLE6=Minor Incident
TTITLE7=A Foggy Day
TTITLE8=What Can I say Dear
TTITLE9=Moe
TTITLE10=Getting A Balance
TTITLE11=That Old Black Magic
EXTD=
EXTT0=
EXTT1=
EXTT2=
EXTT3=
EXTT4=
EXTT5=
EXTT6=
EXTT7=
EXTT8=
EXTT9=
EXTT10=
EXTT11=
PLAYORDER=
